<?xml version="1.0" encoding="UTF-8" standalone="no"?>
<!-- Created with Inkscape (http://www.inkscape.org/) -->

<svg
   xmlns:dc="http://purl.org/dc/elements/1.1/"
   xmlns:cc="http://creativecommons.org/ns#"
   xmlns:rdf="http://www.w3.org/1999/02/22-rdf-syntax-ns#"
   xmlns:svg="http://www.w3.org/2000/svg"
   xmlns="http://www.w3.org/2000/svg"
   xmlns:sodipodi="http://sodipodi.sourceforge.net/DTD/sodipodi-0.dtd"
   xmlns:inkscape="http://www.inkscape.org/namespaces/inkscape"
   width="1024"
   height="1024"
   id="svg2"
   version="1.1"
   inkscape:version="0.48.5 r10040"
   sodipodi:docname="flash-off.svg">
  <defs
     id="defs4" />
  <sodipodi:namedview
     id="base"
     pagecolor="#ffffff"
     bordercolor="#666666"
     borderopacity="1.0"
     inkscape:pageopacity="0.0"
     inkscape:pageshadow="2"
     inkscape:zoom="0.24436779"
     inkscape:cx="224.36647"
     inkscape:cy="175.7355"
     inkscape:document-units="px"
     inkscape:current-layer="layer1"
     showgrid="false"
     inkscape:window-width="1024"
     inkscape:window-height="749"
     inkscape:window-x="256"
     inkscape:window-y="110"
     inkscape:window-maximized="0" />
  <metadata
     id="metadata7">
    <rdf:RDF>
      <cc:Work
         rdf:about="">
        <dc:format>image/svg+xml</dc:format>
        <dc:type
           rdf:resource="http://purl.org/dc/dcmitype/StillImage" />
        <dc:title />
      </cc:Work>
    </rdf:RDF>
  </metadata>
  <g
     inkscape:label="レイヤー 1"
     inkscape:groupmode="layer"
     id="layer1"
     transform="translate(0,-28.362183)">
    <path
       style="fill:#000000"
       d="M 740 124 L 500 344 L 456.40625 383.9375 L 653.59375 581.125 L 764 479.90625 L 609.0625 481.03125 L 601.21875 481.09375 L 654.9375 342.875 L 740 124 z M 423.40625 414.1875 L 394.03125 441.09375 L 591.21875 638.28125 L 620.59375 611.375 L 423.40625 414.1875 z M 361.03125 471.34375 L 260 564 L 414.9375 562.875 L 422.78125 562.8125 L 369.0625 701.09375 L 284 920 L 524 699.9375 L 558.25 668.5625 L 361.03125 471.34375 z "
       transform="translate(0,28.362183)"
       id="path2991" />
    <rect
       style="fill:#000000"
       id="rect3093"
       width="792.80231"
       height="44.722179"
       x="353.86963"
       y="11.775969"
       transform="matrix(0.70710678,0.70710678,-0.70710678,0.70710678,0,0)" />
    <rect
       style="fill:#000000"
       id="rect2992"
       width="959.83087"
       height="67.412872"
       x="275.43994"
       y="-2.1871147"
       transform="matrix(0.70499097,0.70921628,-0.70499097,0.70921628,0,0)" />
  </g>
</svg>
