<?xml version="1.0" encoding="UTF-8" standalone="no"?>
<!-- Created with Inkscape (http://www.inkscape.org/) -->

<svg
   xmlns:dc="http://purl.org/dc/elements/1.1/"
   xmlns:cc="http://creativecommons.org/ns#"
   xmlns:rdf="http://www.w3.org/1999/02/22-rdf-syntax-ns#"
   xmlns:svg="http://www.w3.org/2000/svg"
   xmlns="http://www.w3.org/2000/svg"
   xmlns:sodipodi="http://sodipodi.sourceforge.net/DTD/sodipodi-0.dtd"
   xmlns:inkscape="http://www.inkscape.org/namespaces/inkscape"
   width="1024"
   height="1024"
   id="svg2"
   version="1.1"
   inkscape:version="0.48.5 r10040"
   sodipodi:docname="pocket.svg"
   inkscape:export-filename="/Users/sue/Desktop/pocket-1024.png"
   inkscape:export-xdpi="90"
   inkscape:export-ydpi="90">
  <defs
     id="defs4" />
  <sodipodi:namedview
     id="base"
     pagecolor="#ffffff"
     bordercolor="#666666"
     borderopacity="1.0"
     inkscape:pageopacity="0.0"
     inkscape:pageshadow="2"
     inkscape:zoom="0.44"
     inkscape:cx="498.50281"
     inkscape:cy="464.66661"
     inkscape:document-units="px"
     inkscape:current-layer="layer1"
     showgrid="false"
     inkscape:window-width="1234"
     inkscape:window-height="756"
     inkscape:window-x="44"
     inkscape:window-y="1"
     inkscape:window-maximized="0" />
  <metadata
     id="metadata7">
    <rdf:RDF>
      <cc:Work
         rdf:about="">
        <dc:format>image/svg+xml</dc:format>
        <dc:type
           rdf:resource="http://purl.org/dc/dcmitype/StillImage" />
        <dc:title></dc:title>
      </cc:Work>
    </rdf:RDF>
  </metadata>
  <g
     inkscape:label="レイヤー 1"
     inkscape:groupmode="layer"
     id="layer1"
     transform="translate(0,-28.362183)">
    <path
       style="fill:#000000;fill-opacity:1;stroke:none"
       d="M 112 291.90625 L 112 442.34375 L 112 460.65625 L 112.4375 460.65625 C 121.95374 673.98845 297.18679 844 512 844 C 726.81321 844 902.04626 673.98845 911.5625 460.65625 L 912 460.65625 L 912 442.34375 L 912 291.90625 L 112 291.90625 z M 262 377.84375 L 762 377.84375 L 762 471.875 L 762 483.3125 L 761.71875 483.3125 C 755.7711 616.64512 646.25826 722.90625 512 722.90625 C 377.74173 722.90625 268.2289 616.64512 262.28125 483.3125 L 262 483.3125 L 262 471.875 L 262 377.84375 z "
       transform="translate(0,28.362183)"
       id="rect2985" />
    <path
       style="fill:#000000;fill-opacity:1;stroke:none"
       d="m 287,422.24449 0,84.63616 0,10.28571 0.24107,0 C 292.59395,637.16572 391.16756,732.80475 512,732.80475 c 120.83243,0 219.40604,-95.63903 224.75893,-215.63839 l 0.24107,0 0,-10.28571 0,-84.63616 -450,0 z"
       id="rect2985-2-9"
       inkscape:connector-curvature="0" />
  </g>
</svg>
